<?xml version="1.0" encoding="utf-8" ?><svg xmlns="http://www.w3.org/2000/svg" xmlns:xlink="http://www.w3.org/1999/xlink" width="866" height="288" viewBox="0 0 866 288"><path fill="#434344" d="M475.064 41.9456C487.213 41.8271 499.363 41.7803 511.513 41.8053C518.483 41.7971 529.13 41.4765 535.717 42.2833C540.669 42.8554 545.515 44.1326 550.106 46.0762C580.685 59.2635 581.736 101.25 554.127 117.018C551.606 118.458 549.48 119.35 546.804 120.388C557.352 136.019 567.434 151.956 578.207 167.456L560.134 167.445C556.944 167.488 553.678 167.454 550.481 167.452C547.886 164.194 543.561 157.038 541.105 153.301L522.302 124.792C516.873 124.065 504.039 124.455 498.512 124.808C498.021 138.736 498.718 153.41 498.259 167.558C490.859 167.254 482.351 167.465 474.927 167.533C474.686 144.84 474.671 122.144 474.883 99.4503C474.883 80.9199 474.425 60.2809 475.064 41.9456ZM498.497 103.262C505.307 103.248 512.128 103.312 518.938 103.347C527.63 103.392 535.016 104.123 542.463 98.8191C557.431 86.0473 547.995 61.743 528.108 61.9764C519.709 62.0749 510.569 61.2524 502.157 61.9166C500.741 62.0405 499.535 61.8784 498.616 62.6747C498.207 67.3172 498.39 73.5593 498.4 78.3232L498.497 103.262Z"/><path fill="#434344" d="M103.696 42.3596C114.683 40.922 129.508 49.0441 132.33 60.2688C134.171 67.5902 133.366 80.0203 133.35 87.9761L133.312 128.005L133.314 157.75C133.322 167.16 134.877 178.376 128.847 186.123C123.682 192.758 118.795 195.172 110.839 197.066C98.3622 197.598 83.9603 192.246 80.7549 178.3C79.072 170.977 79.8319 159.809 79.8283 151.924L79.8229 114.97L79.8084 83.3622C79.8104 62.2011 78.8457 48.1512 103.696 42.3596Z"/><path fill="#434344" d="M313.884 41.8799C321.67 42.0981 330.05 41.8991 337.912 41.9267C342.388 50.7911 347.882 65.3944 352.033 74.9887C365.209 105.448 377.051 136.949 390.018 167.47L364.09 167.529C360.808 158.302 355.233 146.126 351.23 137.022L339.233 137.031L299.067 136.989C295.784 146.258 290.499 158.172 286.631 167.507C278.761 167.313 270.214 167.495 262.294 167.514C263.27 162.576 267.967 151.828 270.091 146.877C273.199 139.665 276.236 132.423 279.201 125.151C287.78 103.901 296.624 82.7594 305.732 61.7304C308.527 55.2414 310.859 48.1018 313.884 41.8799ZM307.764 115.899L326.23 115.916C331.841 115.908 337.544 115.955 343.146 115.874C341.356 111.359 325.674 71.5266 324.906 70.9002C321.763 79.531 318.506 88.1197 315.136 96.6643C312.721 102.777 309.676 109.713 307.764 115.899Z"/><path fill="#FEBC05" d="M171.026 42.0189C175.328 41.2815 182.686 43.9659 186.295 46.3704C200.68 55.9536 197.983 70.2741 197.978 85.3245L197.979 122.663L198.022 154.208C198.07 160.967 198.28 167.874 197.845 174.608C197.093 186.269 187.115 194.908 176.11 196.964C175.788 197.036 175.463 197.097 175.137 197.145C168.733 198.11 162.073 195.89 156.829 192.144C144.378 183.251 146.429 168.882 146.425 155.143L146.425 120.84L146.431 86.3525C146.426 80.2514 146.308 74.098 146.585 67.9977C147.267 53.0037 156.32 44.1524 171.026 42.0189Z"/><path fill="#434344" d="M709.68 39.5008C733.418 39.6311 746.334 43.6302 763.907 60.2011C758.169 65.5229 752.4 70.8107 746.6 76.0641C738.871 68.1394 729.264 62.9568 718.069 62.2012C707.112 61.4759 696.316 65.1238 688.044 72.3457C680.036 79.4259 675.087 91.2627 674.581 101.851C672.743 140.302 714.91 161.014 743.656 134.933C744.671 133.997 744.979 133.774 746.171 133.083C748.259 133.448 761.329 145.05 763.986 147.322C761.322 150.025 758.551 152.73 755.58 155.098C732.085 173.822 696.984 173.593 673.378 154.974C660.656 144.844 652.502 130.056 650.725 113.889C646.772 79.9424 666.877 47.923 701.109 40.8135C703.978 40.2177 706.772 39.8367 709.68 39.5008Z"/><path fill="#FEBC05" d="M271.992 183.907C280.649 184.444 294.126 184.042 303.093 184.048L364.422 184.026L613.418 184.038L718.347 184.094C721.998 184.109 743.632 183.536 745.158 184.45C745.718 185.923 745.447 187.537 745.329 189.13L439.018 189.1L326.811 189.089C309.319 189.075 291.726 189.222 274.226 189.086C272.934 189.076 272.62 189.265 271.723 188.409C271.373 186.632 271.66 185.67 271.992 183.907Z"/><path fill="#434344" d="M612.475 141.364C619.703 140.076 626.627 144.832 628.019 152.042C629.41 159.253 624.754 166.244 617.566 167.739C612.823 168.726 607.917 167.081 604.726 163.436C601.535 159.791 600.555 154.709 602.159 150.138C603.764 145.567 607.706 142.214 612.475 141.364Z"/><path fill="#434344" d="M425.855 141.467C433.132 139.985 440.226 144.704 441.672 151.989C443.118 159.274 438.364 166.346 431.073 167.756C423.833 169.156 416.822 164.442 415.387 157.208C413.951 149.974 418.629 142.939 425.855 141.467Z"/><path fill="#434344" d="M325.634 205.211C327.037 205.269 328.401 205.2 329.622 205.882C331.014 208.089 340.43 230.291 340.171 231.735C335.792 234.067 334.196 228.131 333.13 225.37L327.604 225.309L321.39 225.389L318.816 232.094L314.172 231.958C316.239 226.512 322.948 209.448 325.634 205.211ZM323.019 221.269L328.661 221.29L331.139 221.16L331.333 220.843C330.625 219.046 328.177 212.551 327.351 211.272C325.844 214.576 324.399 217.909 323.019 221.269Z"/><path fill="#434344" d="M684.427 211.494C684.478 211.496 685.349 211.499 685.294 211.524C686.619 210.906 691.134 214.289 691.544 214.049C707.279 204.85 705.013 222.678 704.991 231.994L700.437 231.96C700.338 228.244 701.244 217.674 698.961 216.379C690.794 211.746 692.256 225.538 692.285 227.132C692.308 228.523 692.446 229.938 691.925 231.216C690.525 232.165 689.791 231.912 687.893 232.062C687.742 227.576 688.019 222.067 687.452 217.644C687.069 214.656 681.1 214.646 680.237 218.612C679.415 222.39 681.266 228.376 679.486 231.606C678.103 232.372 677.518 232.039 675.747 231.931C675.704 228.291 675.283 214.964 676.13 212.16L677.466 211.757C678.998 211.929 679.314 212.305 680.51 213.332C682.155 212.262 682.525 212.056 684.427 211.494Z"/><path fill="#434344" d="M459.837 211.495C462.997 211.78 463.902 212.534 466.554 214.174C468.757 214.145 476.073 207.184 479.322 215.558C480.63 218.931 481.257 228.236 479.887 231.408C478.869 232.186 477.111 231.98 475.76 231.976C475.789 228.53 475.897 225.039 475.854 221.599C475.816 218.637 475.692 215.865 472.461 215.03C467.458 215.982 467.733 221.483 467.835 225.304C467.846 226.113 467.847 226.922 467.841 227.731C467.819 229.46 468.092 231.042 467.077 232.035C465.627 232.133 465.3 232.194 464.093 231.439C461.172 227.623 467.132 214.345 458.422 215.493C452.637 216.256 457.277 228.235 454.561 231.949L451.143 231.894C451.108 228.591 450.657 214.279 451.594 211.989L452.984 211.684C454.448 211.978 454.634 212.22 455.645 213.36C457.303 212.47 458.06 212.118 459.837 211.495Z"/><path fill="#434344" d="M627.494 211.886C628.927 211.84 629.907 211.891 631.316 211.989C633.753 214.164 629.841 228.381 635.273 228.389C645.925 228.405 637.799 215.775 642.534 212.106C643.797 211.865 644.117 211.762 645.325 212.139C646.058 213.165 645.771 215.655 645.737 217.05C645.803 221.005 646.338 227.911 643.761 231.385C643.323 232.444 640.819 230.596 640.305 230.812C625.551 237.021 627.408 221.067 627.494 211.886Z"/><path fill="#434344" d="M403.389 211.979C404.591 211.891 405.805 211.684 406.896 212.167C409.279 214.895 406.569 222.227 408.21 225.699C409.301 228.007 411.23 229.14 413.702 227.978C419.522 225.242 415.485 218.45 416.9 213.816C417.43 212.078 419.476 211.45 421.025 212.259C421.729 213.614 421.505 216.053 421.477 217.691C421.594 220.572 421.389 223.514 421.249 226.303C420.826 234.789 416.461 230.918 416.771 230.801C401.889 236.43 402.217 222.017 403.389 211.979Z"/><path fill="#434344" d="M555.007 211.595C565.652 212.725 563.03 223.998 562.871 232.084L558.487 231.774C558.163 225.105 561.392 213.741 551.422 216.16C547.858 220.183 550.149 227.377 549.135 231.604C547.814 232.399 548.35 232.213 546.687 232.152C546.026 231.694 545.115 231.159 545.08 230.269C544.952 226.953 544.552 214.291 545.712 211.973C547.247 211.806 547.595 211.771 549.103 212.041L549.363 213.607C550.023 213.74 552.423 212.022 555.007 211.595Z"/><path fill="#434344" d="M368.495 203.867C369.914 203.799 370.548 203.827 371.96 203.987C373.184 205.276 372.64 227.893 372.637 231.968C371.159 232.052 370.612 232.099 369.165 231.851C368.144 230.538 368.619 207.294 368.495 203.867Z"/><path fill="#434344" d="M593.25 211.903C594.208 211.887 596.686 211.799 596.862 212.19C597.836 214.356 597.767 230.736 596.932 232.035C595.614 232.053 594.783 232.01 593.471 231.878C592.493 230.554 592.913 214.352 593.25 211.903Z"/><path fill="#434344" d="M510.171 211.869C511.342 211.866 513.558 211.75 514.385 212.464C514.923 215.922 514.54 227.673 514.461 231.979C512.938 232.05 512.352 232.061 510.849 231.835C509.519 230.271 510.138 215.135 510.171 211.869Z"/><path fill="#434344" d="M594.166 204.478C595.022 204.074 596.032 204.177 596.789 204.747C597.546 205.316 597.925 206.257 597.775 207.192C597.625 208.128 596.97 208.903 596.073 209.206C594.791 209.64 593.392 208.998 592.886 207.743C592.38 206.487 592.941 205.055 594.166 204.478Z"/><path fill="#434344" d="M511.425 204.525C512.669 203.966 514.132 204.493 514.735 205.717C515.337 206.941 514.862 208.422 513.66 209.067C512.844 209.505 511.854 209.463 511.079 208.957C510.303 208.451 509.865 207.562 509.937 206.638C510.01 205.715 510.58 204.905 511.425 204.525Z"/></svg>